<svg width="571" height="208" viewBox="0 0 571 208" fill="none" xmlns="http://www.w3.org/2000/svg">
<path d="M189.4 2H241.7C267.4 2 286.6 18.4 286.6 41.8C286.6 65.2 267.4 81.6 241.7 81.6H211.3V122H189.5V2H189.4ZM239.2 61.6C254.1 61.6 264.4 54.1 264.4 41.9C264.4 29.7 254.1 22.2 239.2 22.2H211.2V61.7L239.2 61.6Z" fill="black"/>
<path d="M372.7 122L344.4 81.6H321.2V122H299.4V2H351.7C377.4 2 396.6 18.4 396.6 41.8C396.6 60 384.9 74 367.6 79.4L397.7 122H372.7ZM321.2 61.6H349.2C364.1 61.6 374.4 54.1 374.4 41.9C374.4 29.7 364.1 22.2 349.2 22.2H321.2V61.6Z" fill="black"/>
<path d="M140.9 2V113.6C140.9 125.3 131.4 134.7 119.8 134.7C110.5 134.7 102.8 128.7 99.8997 120.4H78.1997C82.1997 139.7 99.2997 154.2 119.8 154.2C143.3 154.2 162.3 135.2 162.3 111.7V2H140.9Z" fill="#FCA60D"/>
<path d="M190.432 190.531V140.195H207.44C211.389 140.195 214.617 140.908 217.123 142.333C219.647 143.742 221.515 145.651 222.727 148.06C223.94 150.468 224.546 153.156 224.546 156.121C224.546 159.087 223.94 161.782 222.727 164.207C221.531 166.633 219.68 168.566 217.173 170.008C214.666 171.433 211.454 172.146 207.538 172.146H195.347V166.739H207.341C210.045 166.739 212.216 166.272 213.855 165.338C215.493 164.404 216.681 163.142 217.418 161.553C218.172 159.947 218.549 158.137 218.549 156.121C218.549 154.106 218.172 152.304 217.418 150.714C216.681 149.125 215.485 147.88 213.83 146.978C212.175 146.061 209.979 145.602 207.243 145.602H196.527V190.531H190.432ZM231.293 190.531H224.902L243.385 140.195H249.677L268.16 190.531H261.769L246.728 148.158H246.334L231.293 190.531ZM233.652 170.868H259.41V176.275H233.652V170.868ZM282.095 140.195V190.531H276V140.195H282.095ZM334.231 140.195V190.531H328.333L300.904 151.009H300.412V190.531H294.317V140.195H300.215L327.743 179.815H328.234V140.195H334.231ZM343.675 145.602V140.195H381.427V145.602H365.599V190.531H359.504V145.602H343.675ZM390.835 190.531V140.195H421.213V145.602H396.93V162.61H419.64V168.017H396.93V185.123H421.606V190.531H390.835ZM432.199 190.531V140.195H449.207C453.14 140.195 456.368 140.867 458.891 142.21C461.414 143.537 463.282 145.364 464.495 147.691C465.707 150.018 466.313 152.664 466.313 155.63C466.313 158.596 465.707 161.225 464.495 163.519C463.282 165.813 461.422 167.616 458.916 168.926C456.409 170.221 453.205 170.868 449.306 170.868H435.542V165.363H449.109C451.796 165.363 453.959 164.969 455.597 164.183C457.252 163.396 458.449 162.282 459.186 160.84C459.94 159.382 460.316 157.645 460.316 155.63C460.316 153.614 459.94 151.853 459.186 150.346C458.432 148.838 457.228 147.675 455.573 146.855C453.918 146.02 451.731 145.602 449.011 145.602H438.295V190.531H432.199ZM455.892 167.919L468.28 190.531H461.201L449.011 167.919H455.892ZM503.998 152.779C503.703 150.288 502.507 148.355 500.409 146.978C498.312 145.602 495.739 144.914 492.692 144.914C490.463 144.914 488.514 145.274 486.842 145.995C485.187 146.716 483.893 147.707 482.959 148.969C482.041 150.231 481.583 151.665 481.583 153.27C481.583 154.614 481.902 155.769 482.541 156.736C483.197 157.686 484.032 158.481 485.048 159.12C486.064 159.742 487.129 160.259 488.243 160.668C489.357 161.062 490.381 161.381 491.315 161.627L496.428 163.003C497.738 163.347 499.197 163.822 500.803 164.429C502.425 165.035 503.973 165.862 505.448 166.911C506.939 167.943 508.168 169.271 509.134 170.893C510.101 172.515 510.585 174.506 510.585 176.865C510.585 179.585 509.872 182.043 508.446 184.239C507.037 186.434 504.973 188.179 502.253 189.474C499.549 190.768 496.264 191.415 492.397 191.415C488.792 191.415 485.671 190.834 483.033 189.67C480.411 188.507 478.346 186.885 476.839 184.804C475.348 182.723 474.504 180.306 474.307 177.553H480.599C480.763 179.454 481.402 181.027 482.517 182.272C483.647 183.501 485.073 184.419 486.793 185.025C488.53 185.615 490.398 185.91 492.397 185.91C494.724 185.91 496.813 185.533 498.664 184.779C500.516 184.009 501.982 182.944 503.064 181.584C504.145 180.208 504.686 178.602 504.686 176.767C504.686 175.096 504.219 173.736 503.285 172.687C502.351 171.638 501.122 170.786 499.598 170.131C498.074 169.475 496.428 168.902 494.658 168.41L488.464 166.641C484.532 165.51 481.419 163.896 479.125 161.799C476.831 159.702 475.684 156.957 475.684 153.565C475.684 150.747 476.446 148.289 477.97 146.192C479.51 144.078 481.574 142.44 484.163 141.276C486.769 140.096 489.677 139.507 492.888 139.507C496.133 139.507 499.017 140.088 501.54 141.252C504.063 142.399 506.062 143.972 507.537 145.971C509.028 147.97 509.814 150.239 509.896 152.779H503.998Z" fill="#FCA60D"/>
<path d="M46.5998 47.9L21.7998 2H0.299805V120.4H21.7998V41.3L46.4998 87.1C53.0998 74.9 53.1998 60.1 46.5998 47.9Z" fill="#FCA60D"/>
<path d="M99.8996 2L60.7996 74.2L60.6996 74.1L50.0996 93.7L60.7996 113.5L99.8996 41.3V120.4H121.3V2H99.8996Z" fill="#FCA60D"/>
<path d="M510.3 79.1C509.5 78.3 508.8 77.5 508.3 76.6C502.5 92.6 487.5 104.3 470.4 104.3C448.2 104.3 429.5 85.1 429.5 62C429.5 39.1 448.2 19.9 470.4 19.9C477.5 19.9 484.2 21.9 490.1 25.4L505 10.5C495 3.9 483.1 0 470.5 0C436.2 0 407.4 28.3 407.4 62C407.4 95.7 436.2 124.2 470.5 124.2C493.1 124.2 513.5 111.6 524.6 93.3L510.3 79.1Z" fill="black"/>
<path d="M570.9 122L519.2 70.3001C518.2 69.3001 518.2 67.7001 519.2 66.7001L555.4 30.5001C558.8 27.1001 558.8 21.6001 555.4 18.2001L544.6 7.4001C541.2 4.0001 535.7 4.0001 532.3 7.4001L529.3 10.4001L526.8 7.9001C524 5.1001 519.3 5.1001 516.5 7.9001L452.3 72.1001C449.5 74.9001 449.5 79.6001 452.3 82.4001L461.6 91.7001C464.4 94.5001 469.1 94.5001 471.9 91.7001L536.1 27.5001C538.9 24.7001 538.9 20.0001 536.1 17.2001L533.6 14.7001L536.6 11.7001C537.6 10.7001 539.2 10.7001 540.2 11.7001L551 22.5001C552 23.5001 552 25.1001 551 26.2001L514.8 62.4001C511.4 65.8001 511.4 71.3001 514.8 74.7001L562.2 122.1L570.9 122ZM522.4 13.8001L458.2 78.0001C456.6 79.6001 456.6 82.3001 458.2 84.0001L455 80.8001C453.4 79.2001 453.4 76.5001 455 74.8001L519.2 10.6001C520.8 9.00011 523.5 9.00011 525.2 10.6001L528.4 13.8001C526.8 12.1001 524.1 12.1001 522.4 13.8001Z" fill="#FCA60D"/>
</svg>
