<svg width="551" height="201" viewBox="0 0 551 201" fill="none" xmlns="http://www.w3.org/2000/svg">
<path d="M182.5 2H232.9C257.7 2 276.2 17.8 276.2 40.4C276.2 63 257.7 78.8 232.9 78.8H203.6V117.7H182.5V2ZM230.6 59.4C244.9 59.4 254.9 52.1 254.9 40.3C254.9 28.5 245 21.3 230.6 21.3H203.6V59.4H230.6Z" fill="white"/>
<path d="M359.4 117.8L332.1 78.9H309.7V117.8H288.6V2H339C363.8 2 382.3 17.8 382.3 40.4C382.3 57.9 371 71.4 354.3 76.6L383.3 117.7L359.4 117.8ZM309.6 59.4H336.6C350.9 59.4 360.9 52.1 360.9 40.3C360.9 28.5 351 21.3 336.6 21.3H309.6V59.4Z" fill="white"/>
<path d="M135.7 2V109.7C135.7 120.9 126.6 130.1 115.3 130.1C106.4 130.1 98.9 124.3 96.1 116.3H75.2C79.1 134.9 95.6 148.9 115.3 148.9C137.9 148.9 156.3 130.5 156.3 107.9V2H135.7Z" fill="white"/>
<path d="M183.521 184.211V135.654H199.928C203.737 135.654 206.851 136.342 209.27 137.717C211.704 139.076 213.506 140.918 214.675 143.241C215.845 145.565 216.43 148.157 216.43 151.018C216.43 153.879 215.845 156.479 214.675 158.818C213.521 161.157 211.735 163.022 209.317 164.413C206.899 165.789 203.801 166.476 200.023 166.476H188.263V161.26H199.833C202.441 161.26 204.536 160.81 206.116 159.909C207.697 159.008 208.843 157.791 209.554 156.257C210.281 154.708 210.645 152.962 210.645 151.018C210.645 149.074 210.281 147.335 209.554 145.802C208.843 144.268 207.689 143.067 206.093 142.198C204.496 141.313 202.378 140.87 199.738 140.87H189.401V184.211H183.521ZM222.938 184.211H216.774L234.603 135.654H240.673L258.502 184.211H252.338L237.827 143.336H237.448L222.938 184.211ZM225.214 165.243H250.061V170.459H225.214V165.243ZM271.945 135.654V184.211H266.065V135.654H271.945ZM322.238 135.654V184.211H316.548L290.089 146.086H289.614V184.211H283.735V135.654H289.425L315.979 173.873H316.453V135.654H322.238ZM331.349 140.87V135.654H367.766V140.87H352.497V184.211H346.618V140.87H331.349ZM376.841 184.211V135.654H406.146V140.87H382.721V157.277H404.628V162.493H382.721V178.995H406.525V184.211H376.841ZM416.744 184.211V135.654H433.151C436.944 135.654 440.058 136.302 442.492 137.598C444.926 138.878 446.728 140.641 447.898 142.885C449.067 145.13 449.652 147.683 449.652 150.543C449.652 153.404 449.067 155.941 447.898 158.154C446.728 160.367 444.934 162.106 442.516 163.37C440.097 164.619 437.007 165.243 433.245 165.243H419.968V159.932H433.056C435.648 159.932 437.734 159.553 439.315 158.794C440.911 158.036 442.065 156.961 442.777 155.57C443.504 154.163 443.867 152.488 443.867 150.543C443.867 148.599 443.504 146.9 442.777 145.446C442.05 143.992 440.888 142.87 439.291 142.079C437.695 141.273 435.585 140.87 432.961 140.87H422.624V184.211H416.744ZM439.6 162.398L451.549 184.211H444.721L432.961 162.398H439.6ZM486.005 147.793C485.72 145.391 484.566 143.526 482.543 142.198C480.52 140.87 478.038 140.206 475.098 140.206C472.949 140.206 471.068 140.554 469.455 141.249C467.859 141.945 466.61 142.901 465.709 144.118C464.824 145.335 464.382 146.718 464.382 148.267C464.382 149.563 464.69 150.678 465.306 151.61C465.939 152.527 466.745 153.294 467.725 153.91C468.705 154.511 469.732 155.009 470.807 155.404C471.882 155.783 472.87 156.091 473.771 156.329L478.702 157.656C479.967 157.988 481.373 158.447 482.922 159.031C484.487 159.616 485.981 160.414 487.403 161.426C488.842 162.422 490.027 163.702 490.96 165.267C491.892 166.832 492.359 168.752 492.359 171.028C492.359 173.652 491.671 176.023 490.296 178.141C488.937 180.259 486.945 181.943 484.321 183.191C481.713 184.44 478.544 185.064 474.814 185.064C471.336 185.064 468.325 184.503 465.781 183.381C463.252 182.259 461.26 180.694 459.806 178.686C458.367 176.679 457.553 174.348 457.364 171.692H463.433C463.591 173.526 464.208 175.043 465.283 176.244C466.373 177.43 467.748 178.315 469.408 178.9C471.084 179.469 472.885 179.753 474.814 179.753C477.058 179.753 479.074 179.39 480.86 178.663C482.646 177.92 484.06 176.892 485.104 175.581C486.147 174.253 486.668 172.704 486.668 170.933C486.668 169.321 486.218 168.009 485.317 166.998C484.416 165.986 483.231 165.164 481.761 164.532C480.291 163.9 478.702 163.347 476.995 162.872L471.02 161.165C467.227 160.075 464.224 158.518 462.011 156.495C459.798 154.471 458.691 151.824 458.691 148.552C458.691 145.833 459.426 143.462 460.896 141.439C462.382 139.4 464.374 137.819 466.871 136.697C469.384 135.559 472.19 134.99 475.288 134.99C478.418 134.99 481.199 135.551 483.634 136.674C486.068 137.78 487.996 139.297 489.419 141.226C490.857 143.154 491.616 145.343 491.695 147.793H486.005Z" fill="white"/>
<path d="M44.7 46.1999L20.8 1.8999H0V116.1H20.8V39.7999L44.6 83.9999C51.1 72.2999 51.1 57.9999 44.7 46.1999Z" fill="white"/>
<path d="M96.2 2L58.4 71.6L48.1 90.5L58.4 109.5L96.2 39.9V116.2H116.8V2H96.2Z" fill="white"/>
<path d="M492.1 76.3C491.3 75.5 490.7 74.7 490.1 73.9C484.5 89.4 470 100.6 453.5 100.6C432.1 100.6 414.1 82.1 414.1 59.8C414.1 37.7 432.1 19.2 453.5 19.2C460.3 19.2 466.8 21.1 472.5 24.5L486.9 10.1C477.3 3.69998 465.8 0 453.6 0C420.6 0 392.7 27.3 392.7 59.8C392.7 92.3 420.5 119.8 453.6 119.8C475.4 119.8 495.1 107.7 505.7 90L492.1 76.3Z" fill="white"/>
<path d="M550.5 117.8L500.6 67.9001C499.6 66.9001 499.6 65.4001 500.6 64.4001L535.5 29.5001C538.8 26.2001 538.8 20.9001 535.5 17.6001L525.1 7.2001C521.8 3.9001 516.5 3.9001 513.2 7.2001L510.3 10.1001L507.9 7.7001C505.2 5.0001 500.7 5.0001 498 7.7001L436.1 69.6001C433.4 72.3001 433.4 76.8001 436.1 79.5001L445 88.4001C447.7 91.1001 452.2 91.1001 454.9 88.4001L516.8 26.5001C519.5 23.8001 519.5 19.3001 516.8 16.6001L514.4 14.2001L517.3 11.3001C518.3 10.3001 519.8 10.3001 520.8 11.3001L531.2 21.7001C532.2 22.7001 532.2 24.3001 531.2 25.2001L496.3 60.1001C493 63.4001 493 68.7001 496.3 72.0001L542 117.7L550.5 117.8ZM503.8 13.3001L441.9 75.2001C440.3 76.8001 440.3 79.4001 441.9 81.0001L438.8 77.9001C437.2 76.3001 437.2 73.7001 438.8 72.1001L500.7 10.2001C502.3 8.6001 504.9 8.6001 506.5 10.2001L509.6 13.3001C508 11.7001 505.4 11.7001 503.8 13.3001Z" fill="white"/>
</svg>
